<?xml version="1.0" standalone="no"?>
<!DOCTYPE svg PUBLIC "-//W3C//DTD SVG 20010904//EN"
 "http://www.w3.org/TR/2001/REC-SVG-20010904/DTD/svg10.dtd">
<svg version="1.0" xmlns="http://www.w3.org/2000/svg"
 width="265.000000pt" height="238.000000pt" viewBox="0 0 265.000000 238.000000"
 preserveAspectRatio="xMidYMid meet">

<g transform="translate(0.000000,238.000000) scale(0.100000,-0.100000)"
fill="#000000" stroke="none">
<path d="M1650 1633 c0 -291 -3 -402 -12 -411 -9 -9 -7 -13 6 -18 10 -4 22 -2
27 3 15 15 7 815 -8 821 -10 3 -13 -81 -13 -395z"/>
<path d="M1040 1586 c0 -226 -4 -357 -10 -361 -17 -10 -11 -25 10 -25 20 0 20
7 20 364 0 233 -4 367 -10 371 -7 4 -10 -115 -10 -349z"/>
<path d="M1220 1806 c0 -2 8 -10 18 -17 15 -13 16 -12 3 4 -13 16 -21 21 -21
13z"/>
</g>
</svg>
